<svg t="1575543695251" class="icon" viewBox="0 0 1024 1024" version="1.1" xmlns="http://www.w3.org/2000/svg" p-id="2267" width="16" height="16"><path d="M878.08 33.28c62.1568 0 112.64 50.4832 112.64 112.64v732.16c0 62.1568-50.4832 112.64-112.64 112.64h-732.16c-62.1568 0-112.64-50.4832-112.64-112.64v-732.16c0-62.1568 50.4832-112.64 112.64-112.64h732.16m0-28.16h-732.16C68.1984 5.12 5.12 68.1984 5.12 145.92v732.16C5.12 955.8016 68.1984 1018.88 145.92 1018.88h732.16c77.7216 0 140.8-63.0784 140.8-140.8v-732.16C1018.88 68.1984 955.8016 5.12 878.08 5.12z" fill="#8a8a8a" p-id="2268"></path></svg>