<svg t="1575554931997" class="icon" viewBox="0 0 1024 1024" version="1.1" xmlns="http://www.w3.org/2000/svg" p-id="2617" width="16" height="16"><path d="M0 128c0-70.4 57.6-128 128-128l768 0c70.4 0 128 57.6 128 128l0 768c0 70.4-57.6 128-128 128L128 1024c-70.4 0-128-57.6-128-128L0 128zM454.4 652.8 448 646.4 249.6 441.6c-12.8-12.8-32-12.8-44.8 0C192 454.4 192 473.6 198.4 486.4l230.4 230.4c12.8 12.8 32 12.8 44.8 0L492.8 704c128-128 390.4-390.4 390.4-390.4 12.8-12.8 12.8-32 0-44.8-12.8-12.8-32-12.8-44.8 0L454.4 652.8z" fill="#2D8CF0" p-id="2618"></path></svg>