<svg t="1574956591622" class="icon" viewBox="0 0 1024 1024" version="1.1" xmlns="http://www.w3.org/2000/svg" p-id="1360" width="16" height="16"><path d="M559.5392 512l250.1888-250.1888a32.6912 32.6912 0 0 0 0-46.0544l-1.3824-1.3568a32.6912 32.6912 0 0 0-46.0544 0l-250.1632 250.4704-250.1888-250.5984a32.6912 32.6912 0 0 0-46.0544 0l-1.3568 1.3824a32.128 32.128 0 0 0 0 46.0544l250.1632 250.2656-250.1632 250.1888a32.6912 32.6912 0 0 0 0 46.0544l1.3568 1.3568a32.6912 32.6912 0 0 0 46.08 0l250.1632-250.1632 250.1632 250.1632a32.6912 32.6912 0 0 0 46.0544 0l1.3824-1.3568a32.6912 32.6912 0 0 0 0-46.0544l-250.1888-250.1888z" fill="#999999" p-id="1361"></path></svg>