<svg t="1574370810347" class="icon" viewBox="0 0 1024 1024" version="1.1" xmlns="http://www.w3.org/2000/svg" p-id="3739" width="16" height="16"><path d="M344 408v-36.64c0-90.096 71.504-163.36 160-163.36s160 73.264 160 163.36v36.64h109.28c14.768 0 26.72 11.952 26.72 26.72v346.56a26.72 26.72 0 0 1-26.72 26.72H250.72A26.72 26.72 0 0 1 224 781.28V434.72c0-14.768 11.952-26.72 26.72-26.72h93.28z m48 0h224v-36.64c0-63.84-50.272-115.36-112-115.36s-112 51.52-112 115.36v36.64z m-120 352h480v-304H272v304z m201.76-119.872l126.976-130.528a21.6 21.6 0 0 1 30.56-0.288l0.896 0.944 4.944 5.472a21.6 21.6 0 0 1-0.608 29.6l-147.568 151.52a21.6 21.6 0 0 1-30.56 0.288l-0.432-0.432-75.984-80.752a21.6 21.6 0 0 1-0.304-29.616l4.976-5.408a21.6 21.6 0 0 1 30.528-1.216c0.48 0.432 0.48 0.432 0.912 0.88l55.664 59.536z" p-id="3740" fill="#d9d9d9"></path></svg>