<svg t="1574931689842" class="icon" viewBox="0 0 1024 1024" version="1.1" xmlns="http://www.w3.org/2000/svg" p-id="1880" width="16" height="16"><path d="M512 512m-512 0a512 512 0 1 0 1024 0 512 512 0 1 0-1024 0Z" fill="#2092E5" p-id="1881"></path><path d="M467.793814 800.989691a32.989691 32.989691 0 0 1-23.092783-9.237114L206.515464 553.56701a32.989691 32.989691 0 0 1 46.845361-46.845361l214.432989 215.092784 329.896908-329.896907a33.649485 33.649485 0 0 1 46.84536 0 32.989691 32.989691 0 0 1 0 46.845361L491.546392 791.752577a34.309278 34.309278 0 0 1-23.752578 9.237114z" fill="#FFFFFF" p-id="1882"></path></svg>